<?xml version="1.0" encoding="UTF-8"?>
<svg id="Layer_1" data-name="Layer 1" xmlns="http://www.w3.org/2000/svg" viewBox="0 0 840 182.88">
  <defs>
    <style>
      .cls-1 {
        fill: #016afb;
        stroke-width: 0px;
      }
    </style>
  </defs>
  <path class="cls-1" d="m237.78,169.88c-10.01,0-17.7-1.72-23.08-5.15-5.38-3.43-9.34-7.24-11.88-11.43h-4.03v13.45h-27.79V12.88h28.24v55.49h4.03c1.64-2.69,3.85-5.23,6.61-7.62,2.76-2.39,6.42-4.37,10.98-5.94,4.55-1.57,10.19-2.35,16.92-2.35,8.96,0,17.26,2.21,24.87,6.61,7.62,4.41,13.74,10.87,18.37,19.38,4.63,8.52,6.95,18.82,6.95,30.92v3.59c0,12.1-2.32,22.41-6.95,30.92-4.63,8.52-10.76,14.98-18.37,19.38s-15.91,6.61-24.87,6.61Zm-8.52-24.65c8.66,0,15.91-2.8,21.74-8.4,5.83-5.6,8.74-13.78,8.74-24.54v-2.24c0-10.76-2.88-18.94-8.63-24.54-5.75-5.6-13.04-8.4-21.85-8.4s-15.91,2.8-21.74,8.4c-5.83,5.6-8.74,13.78-8.74,24.54v2.24c0,10.76,2.91,18.94,8.74,24.54,5.83,5.6,13.07,8.4,21.74,8.4Z"/>
  <path class="cls-1" d="m570.6,169.88c-14.49,0-26.37-3.14-35.63-9.41-9.26-6.27-14.87-15.24-16.81-26.89l26-6.72c1.04,5.23,2.8,9.34,5.27,12.32,2.46,2.99,5.53,5.12,9.19,6.39,3.66,1.27,7.65,1.9,11.99,1.9,6.57,0,11.43-1.16,14.57-3.47,3.14-2.31,4.71-5.19,4.71-8.63s-1.49-6.09-4.48-7.95c-2.99-1.87-7.77-3.4-14.34-4.59l-6.27-1.12c-7.77-1.49-14.87-3.55-21.29-6.16-6.42-2.61-11.58-6.24-15.46-10.87-3.89-4.63-5.83-10.61-5.83-17.93,0-11.05,4.03-19.53,12.1-25.43,8.07-5.9,18.67-8.85,31.82-8.85,12.4,0,22.71,2.77,30.92,8.29,8.21,5.53,13.59,12.77,16.13,21.74l-26.22,8.07c-1.2-5.68-3.62-9.71-7.28-12.1-3.66-2.39-8.18-3.59-13.56-3.59s-9.49.93-12.32,2.8c-2.84,1.87-4.26,4.45-4.26,7.73,0,3.59,1.49,6.24,4.48,7.96,2.99,1.72,7.02,3.03,12.1,3.92l6.28,1.12c8.36,1.5,15.94,3.47,22.75,5.94,6.8,2.46,12.17,5.98,16.13,10.53,3.96,4.56,5.94,10.72,5.94,18.49,0,11.65-4.22,20.66-12.66,27-8.44,6.35-19.76,9.52-33.95,9.52Z"/>
  <path class="cls-1" d="m683.73,146.58c-3.53,0-5.56-1.6-6.12-4.77-.12-.59-.17-1.25-.17-1.96v-57.81h20.88v-23.3h-20.88V24.22h-28.23v34.51h-19.05v23.3h19.05v62.74c0,1.12.05,2.21.16,3.26.56,6.12,2.79,11.12,6.68,15.01,3.7,3.7,8.32,5.9,13.85,6.59,1.28.17,2.59.24,3.96.24h24.92v-23.3h-15.05Z"/>
  <path class="cls-1" d="m769.43,169.88c-11.06,0-20.99-2.24-29.8-6.72-8.82-4.48-15.76-10.98-20.84-19.5-5.08-8.52-7.62-18.75-7.62-30.7v-3.59c0-11.95,2.54-22.18,7.62-30.7,5.08-8.52,12.02-15.01,20.84-19.5,8.81-4.48,18.75-6.72,29.8-6.72s20.99,2.24,29.8,6.72c8.81,4.48,15.76,10.98,20.84,19.5,5.08,8.52,7.62,18.75,7.62,30.7v3.59c0,11.95-2.54,22.18-7.62,30.7-5.08,8.52-12.03,15.01-20.84,19.5-8.82,4.48-18.75,6.72-29.8,6.72Zm0-25.1c8.66,0,15.83-2.8,21.51-8.4,5.68-5.6,8.52-13.63,8.52-24.09v-2.24c0-10.45-2.8-18.49-8.4-24.09-5.6-5.6-12.81-8.4-21.62-8.4s-15.84,2.8-21.51,8.4c-5.68,5.6-8.52,13.63-8.52,24.09v2.24c0,10.46,2.84,18.49,8.52,24.09,5.67,5.6,12.85,8.4,21.51,8.4Z"/>
  <path class="cls-1" d="m497.79,78.67c-5.08-8.51-12.03-15.02-20.84-19.49-8.82-4.49-18.75-6.72-29.8-6.72s-20.99,2.24-29.8,6.72c-4.02,2.04-7.65,4.5-10.89,7.39-.69.6-1.36,1.23-2.02,1.88-.47.47-.92.94-1.37,1.42-2.46,2.64-4.64,5.57-6.57,8.8-4.72,7.91-7.24,17.3-7.57,28.17-.03.84-.05,1.68-.05,2.53v3.59c0,.84.02,1.68.04,2.51-.17,2.95-.6,5.68-1.28,8.21-.49,1.84-1.11,3.57-1.87,5.19-1.33,2.86-3.09,5.37-5.27,7.51-5.68,5.6-12.85,8.4-21.51,8.4s-15.84-2.8-21.52-8.4c-5.68-5.6-8.51-13.63-8.51-24.09v-2.24c0-10.45,2.84-18.48,8.51-24.09,5.68-5.6,12.85-8.4,21.52-8.4s16.02,2.8,21.62,8.4c2.13,2.13,3.85,4.61,5.17,7.45,1.36-6.28,3.59-12.02,6.65-17.16,2.09-3.51,4.5-6.73,7.17-9.59l.07-.08c-3.24-2.89-6.87-5.35-10.88-7.39-8.82-4.49-18.75-6.72-29.8-6.72s-20.99,2.24-29.8,6.72c-8.82,4.48-15.76,10.98-20.84,19.49-5.08,8.51-7.62,18.75-7.62,30.7v3.59c0,11.95,2.54,22.18,7.62,30.69,5.08,8.52,12.02,15.02,20.84,19.5,8.81,4.48,18.74,6.72,29.8,6.72s20.98-2.25,29.8-6.72c4.01-2.05,7.64-4.51,10.88-7.39.69-.6,1.36-1.23,2.02-1.88.46-.46.92-.94,1.37-1.42,2.46-2.65,4.65-5.58,6.57-8.8,4.71-7.91,7.24-17.3,7.57-28.19.02-.83.04-1.66.04-2.51v-3.59c0-.85-.02-1.69-.04-2.51.03-.46.06-.91.1-1.36.02-.2.04-.39.05-.59.06-.54.12-1.08.2-1.61.04-.34.09-.67.14-.99.03-.2.07-.4.1-.61.02-.09.04-.2.06-.3.09-.55.2-1.1.33-1.62.02-.09.04-.17.06-.25.07-.29.14-.58.22-.87h0c.13-.51.28-1.01.44-1.5.08-.29.17-.58.28-.86,0,0,0-.02,0-.02.15-.44.32-.87.48-1.29,0,0,0-.02.02-.03.17-.43.35-.84.54-1.25,0-.02.02-.04.03-.06.02-.06.06-.12.08-.17.13-.28.27-.55.4-.82.09-.17.17-.34.27-.5.15-.29.31-.58.47-.85,0-.03.03-.06.06-.09.19-.35.4-.68.61-1.01.06-.09.12-.18.19-.28.19-.29.39-.58.61-.87.02-.03.04-.07.07-.1.25-.35.51-.69.79-1.02.23-.28.47-.55.7-.82.13-.14.25-.28.39-.42.23-.25.47-.5.72-.74,5.68-5.6,12.84-8.4,21.51-8.4s16.02,2.8,21.62,8.4c5.6,5.6,8.4,13.64,8.4,24.09v2.24c0,10.46-2.84,18.49-8.51,24.09-5.68,5.6-12.85,8.4-21.51,8.4s-15.84-2.8-21.51-8.4c-.24-.24-.49-.49-.72-.74-.14-.15-.28-.3-.41-.45-.32-.35-.61-.7-.91-1.07-.17-.21-.34-.43-.5-.65-.06-.08-.13-.16-.18-.24-.2-.26-.39-.53-.56-.8-.08-.11-.15-.22-.22-.33-.19-.28-.36-.57-.54-.87-.06-.08-.1-.17-.14-.24-.16-.26-.3-.52-.43-.78-.11-.19-.2-.38-.3-.57-.13-.24-.25-.5-.37-.76-1.36,6.31-3.59,12.06-6.66,17.21-2.08,3.49-4.49,6.72-7.17,9.6l-.08.09c3.24,2.88,6.87,5.34,10.89,7.39,8.81,4.48,18.74,6.72,29.8,6.72s20.98-2.25,29.8-6.72c8.81-4.49,15.76-10.98,20.84-19.5,5.08-8.51,7.61-18.74,7.61-30.69v-3.59c0-11.95-2.54-22.19-7.61-30.7Z"/>
  <path class="cls-1" d="m42.98,169.88H12.65L67.87,13.02h35.09l55.29,156.86h-30.33l-41.9-124.69h-1.21l-41.83,124.69Zm1-61.5h82.72v22.82H43.98v-22.82Z"/>
</svg>